<?xml version="1.0" encoding="UTF-8" standalone="no"?>
<!-- Created with Inkscape (http://www.inkscape.org/) -->
<svg xmlns:inkscape="http://www.inkscape.org/namespaces/inkscape" xmlns:rdf="http://www.w3.org/1999/02/22-rdf-syntax-ns#" xmlns="http://www.w3.org/2000/svg" xmlns:xlink="http://www.w3.org/1999/xlink" xmlns:ns1="http://sozi.baierouge.fr" xmlns:cc="http://creativecommons.org/ns#" xmlns:sodipodi="http://sodipodi.sourceforge.net/DTD/sodipodi-0.dtd" xmlns:dc="http://purl.org/dc/elements/1.1/" id="svg2" xml:space="preserve" viewBox="0 0 28.11 28.75" version="1.1" inkscape:version="0.91 r13725">
  <g id="g10" transform="matrix(1.25,0,0,-1.25,0,28.75)">
    <g id="g12">
      <path id="path14" style="fill-rule:evenodd;fill:#493322" d="m6.641 22.559 0.078 0.043 1.84 0.359 2.32 0.039c0.027 0 0.16-0.039 0.402-0.121l0.321-0.16 0.277-0.078 0.281-0.039h0.84l0.281-0.043 0.797-0.239 0.801-0.121h0.043l2.359-0.758c0.106-0.109 0.184-0.32 0.239-0.64 0.027-0.348 0.093-0.586 0.203-0.723 0.105-0.156 0.316-0.332 0.636-0.519 0.215-0.211 0.481-0.399 0.801-0.559s0.629-0.387 0.918-0.68c0.188-0.16 0.442-0.425 0.762-0.8 0.453-0.454 0.785-0.934 1-1.442 0.16-0.316 0.254-0.73 0.281-1.238 0.027-0.293 0.051-0.719 0.078-1.281 0-0.211 0.055-0.547 0.16-1 0.082-0.426 0.121-0.758 0.121-1 0.028-0.637-0.015-1.586-0.121-2.84-0.05-1.305-0.504-2.321-1.359-3.039l-0.641-0.68c0.188-0.105 0.215-0.227 0.082-0.359-0.242-0.188-0.441-0.348-0.601-0.481l-0.039-0.039c-0.453-0.457-0.895-0.75-1.321-0.883l-0.281-0.078c-0.719 0.078-1.238 0.024-1.558-0.16l-0.442-0.402c-0.16-0.16-0.293-0.266-0.398-0.321l-0.922-0.355c-0.371-0.188-0.731-0.32-1.078-0.402l-0.36-0.079h-0.363l-0.199-0.043c-0.211-0.023-0.652-0.183-1.317-0.476l-0.203-0.121c-0.425-0.188-0.972-0.348-1.636-0.481-0.778-0.132-1.348-0.242-1.723-0.32h-0.039l-0.121 0.078c-0.985 0.723-1.801 1.281-2.442 1.684l-0.519 0.277-0.117 0.039-1.524 0.762-0.117 0.121-0.562 0.359-0.758 0.641-0.36 0.398-0.043 0.082-0.16 0.2-0.117 0.121-0.441 0.758v0.039l-0.078 0.32-0.043 0.082v0.117l-0.161 0.684-0.039 0.277-0.039 0.16-0.039 0.082v0.199l-0.043 0.079v0.203l-0.039 0.117-0.039 0.32v0.121l-0.039 0.239v0.402l-0.043 0.238-0.078 3.281 0.039 0.2v0.242l0.039 0.238 0.121 0.36 0.121 0.679v0.121l0.039 0.2 0.039 0.121 0.043 0.238 0.321 0.961c0.398 1.281 0.746 2.254 1.039 2.922v0.039l0.32 0.597-0.16 0.403c0.211 0.051 0.531 0.187 0.961 0.398 0.078 0.028 0.359 0.055 0.84 0.082 0.343 0.024 0.597 0.117 0.758 0.278 0.082 0.082 0.132 0.203 0.16 0.363l0.082 0.359c0.133 0.344 0.476 0.664 1.039 0.957l0.84 0.321z" inkscape:connector-curvature="0"/>
      <path id="path16" style="fill-rule:evenodd;fill:#9d663e" d="m12.48 22.48 0.04 0.122h0.082c-0.028-0.215-0.215-0.375-0.563-0.481 0.242 0.106 0.387 0.227 0.441 0.359z" inkscape:connector-curvature="0"/>
      <path id="path18" style="fill-rule:evenodd;fill:#9d663e" d="m15.039 20.359 0.481 0.481 0.601-0.238c-0.133-0.161-0.281-0.297-0.441-0.403l-0.2-0.121c-0.16 0.16-0.308 0.254-0.441 0.281z" inkscape:connector-curvature="0"/>
      <path id="path20" style="fill-rule:evenodd;fill:#9d663e" d="m14.922 22.199 0.359-0.121 1.719-0.558-0.238-0.161-0.481-0.597c-0.242 0.183-0.441 0.265-0.601 0.238l-0.68 0.121-0.32-0.242c0.425 0.348 0.625 0.746 0.601 1.199l-0.359 0.121z" inkscape:connector-curvature="0"/>
      <path id="path22" style="fill-rule:evenodd;fill:#9d663e" d="m4.762 19.641c-0.11-0.375 0.16-0.536 0.797-0.481 0.562 0.051 0.961 0.172 1.203 0.36l-0.563 0.16c-0.801 0-1.277-0.012-1.437-0.039zm2.558 1.398c0.188-0.078 0.348-0.051 0.481 0.082v0.399c-0.106 0.082-0.266 0.082-0.481 0-0.105-0.161-0.105-0.321 0-0.481zm-0.16 0.883c-0.535 0.105-0.785-0.055-0.762-0.481 0.188-0.054 0.387-0.027 0.602 0.079 0.266 0.16 0.453 0.253 0.559 0.281l-0.399 0.121zm2.238-0.922v-0.199c-0.105-0.028-0.32-0.039-0.636-0.039-0.27 0-0.442-0.043-0.524-0.121 1.574-0.293 2.282-0.039 2.121 0.757l-0.961-0.398zm-0.918 0.68c-0.265 0.054-0.441-0.028-0.519-0.239l0.801-0.043-0.282 0.282zm3.879-0.399-0.16 0.239c-0.133 0.054-0.226 0.015-0.277-0.122 0.078-0.132 0.226-0.171 0.437-0.117zm-2.8 1.699 1.32 0.02c0.027 0 0.16-0.039 0.402-0.121 0.106-0.133 0.133-0.293 0.078-0.481-0.023-0.105-0.093-0.277-0.199-0.519l-0.121-0.039h0.082l-0.043-0.121 0.203 0.082c0.719-0.106 1.293-0.016 1.719 0.277l0.52 0.402 0.558-0.16 0.801-0.121c0-0.664-0.399-1.238-1.199-1.719h-0.641l0.563-0.039-0.364-0.121c-0.183-0.027-0.492 0-0.918 0.078-0.398 0.082-0.691 0.094-0.879 0.043-0.16-0.613-0.722-1-1.679-1.16-0.481-0.054-1.336-0.066-2.563-0.043 0.696-0.05 1.293-0.133 1.801-0.238 1.066-0.266 1.867-0.148 2.398 0.359 0.215 0.215 0.375 0.336 0.481 0.36 0.133 0.054 0.336 0.082 0.601 0.082h0.282c0.746-0.082 1.343 0.011 1.8 0.277l0.317-0.359-0.399-0.278c-0.132 0.024-0.253-0.043-0.359-0.203-0.027 0-0.043-0.039-0.043-0.117-0.344 0.184-0.867 0.051-1.558-0.402-0.188-0.184-0.332-0.321-0.442-0.399-0.183-0.132-0.359-0.215-0.519-0.242h-0.957c-0.43 0-1.137 0.149-2.122 0.442-0.878 0.292-1.585 0.402-2.121 0.32-0.48-0.078-0.839-0.145-1.078-0.199-0.402-0.055-0.761-0.028-1.082 0.078-0.586 0.187-1.094 0.508-1.519 0.961 0.265 0.16 0.988 0.242 2.16 0.242h3.082c-1.203 0.051-1.934 0.332-2.203 0.84-0.16 0.316-0.16 0.543 0 0.679 0.082 0.079 0.293 0.211 0.64 0.399 0.348 0.238 0.786 0.465 1.321 0.68 0.375 0.132 0.906 0.253 1.601 0.359l0.278 0.101z" inkscape:connector-curvature="0"/>
      <path id="path24" style="fill-rule:evenodd;fill:#704a2d" d="m15.801 14.078c0-0.238 0.039-0.41 0.121-0.519 0.023-0.051 0.156-0.172 0.398-0.36-0.242 0.403-0.187 0.961 0.16 1.68l-0.121 0.121c-0.371 0.027-0.558-0.281-0.558-0.922zm4.32 1.762c0.371-0.051 0.492-0.852 0.359-2.399-0.347-0.136-0.746-0.054-1.203 0.239-0.476 0.398-0.851 0.668-1.117 0.8l-0.16 0.122c-0.586 0.824-1.066 1.359-1.441 1.597 0.054-0.211 0.187-0.48 0.402-0.801 0.105-0.183 0.266-0.453 0.48-0.796h-0.121l0.2-0.122c0.558-0.718 0.851-1.105 0.878-1.16 0.188-0.425-0.023-0.773-0.636-1.039l-0.641-0.043c-0.402-0.023-0.762 0.137-1.082 0.481h0.039c-0.023 0.187-0.156 0.402-0.398 0.64l-0.121 0.321c-0.106 0.48-0.067 0.84 0.121 1.082 0.054 0.105 0.226 0.211 0.519 0.316 0.239 0.11 0.375 0.254 0.399 0.442h-0.598c-0.242 0-0.441 0.054-0.602 0.16-0.16 0.132-0.253 0.375-0.277 0.718-0.027 0.403-0.109 0.657-0.242 0.762-0.188 0.188-0.441 0.227-0.758 0.121v0.84c0.211 0.16 0.277 0.371 0.199 0.641-0.027 0.16-0.109 0.277-0.242 0.359 0 0.078 0.016 0.117 0.043 0.117 0.106 0.16 0.227 0.231 0.359 0.203l0.399 0.278c0.109-0.133 0.199-0.332 0.281-0.598l0.961-1.641c-0.055 0.668-0.094 1.094-0.121 1.282-0.188 0.718-0.332 1.133-0.441 1.238l-0.079 0.078 0.2 0.121c0.16 0.106 0.308 0.242 0.441 0.403 0.266-0.082 0.387-0.254 0.359-0.524l0.122 0.242c-0.055 0.16-0.161 0.305-0.321 0.442l0.481 0.597 0.277 0.2 0.199-0.118c-0.238-0.48-0.359-0.921-0.359-1.32 0.027-0.453 0.176-0.773 0.441-0.961 0.133-0.082 0.442-0.16 0.918-0.238l0.602-0.481 0.121-0.082c-0.32 0.028-0.563 0.039-0.723 0.039-0.316 0-0.547-0.05-0.679-0.16-0.266-0.16-0.399-0.625-0.399-1.398 0-1.227 0.481-1.906 1.442-2.039-0.614 0.664-0.922 1.265-0.922 1.801 0 0.636 0.308 1.132 0.922 1.476l0.359 0.242 0.437-0.48c0.055-0.16 0.122-0.266 0.204-0.32 0.343-0.614 0.519-1.172 0.519-1.68z" inkscape:connector-curvature="0"/>
      <path id="path26" style="fill-rule:evenodd;fill:#805432" d="m12.16 22.602h0.36l-0.04-0.122c-0.054-0.132-0.199-0.253-0.441-0.359-0.531-0.133-0.824-0.215-0.879-0.242 0.106 0.242 0.172 0.414 0.199 0.519 0.055 0.188 0.028 0.348-0.082 0.481l0.321-0.16 0.281-0.078 0.281-0.039z" inkscape:connector-curvature="0"/>
      <path id="path28" style="fill-rule:evenodd;fill:#8b5b37" d="m13.68 20.48c0.8 0.481 1.199 1.051 1.199 1.719h0.043l0.359-0.121c0.024-0.453-0.176-0.851-0.601-1.199l-0.641-0.359-0.359-0.04z" inkscape:connector-curvature="0"/>
      <path id="path30" style="fill-rule:evenodd;fill:#8b5b37" d="m13.801 20.359c-0.641-0.16-1.028-0.332-1.16-0.519l0.121-0.039h-0.282c-0.265 0-0.468-0.028-0.601-0.082-0.106-0.024-0.266-0.145-0.481-0.36-0.531-0.507-1.332-0.625-2.398-0.359-0.508 0.105-1.105 0.188-1.801 0.238 1.227-0.023 2.082-0.011 2.563 0.043 0.957 0.16 1.515 0.547 1.679 1.16 0.184 0.051 0.481 0.039 0.879-0.043 0.426-0.078 0.735-0.105 0.918-0.078l0.364 0.121 0.277-0.043-0.078-0.039z" inkscape:connector-curvature="0"/>
      <path id="path32" style="fill-rule:evenodd;fill:#8b5b37" d="m4.762 19.641c0.16 0.027 0.636 0.039 1.437 0.039l0.563-0.16c-0.242-0.188-0.641-0.305-1.203-0.36-0.637-0.055-0.907 0.106-0.797 0.481z" inkscape:connector-curvature="0"/>
      <path id="path34" style="fill-rule:evenodd;fill:#8b5b37" d="m7.559 21.801c-0.106-0.028-0.293-0.121-0.559-0.281-0.215-0.106-0.414-0.133-0.602-0.079-0.023 0.426 0.227 0.586 0.762 0.481l0.399-0.121z" inkscape:connector-curvature="0"/>
      <path id="path36" style="fill-rule:evenodd;fill:#8b5b37" d="m8.762 21.398-0.801 0.043c0.078 0.211 0.25 0.293 0.519 0.239l0.282-0.282z" inkscape:connector-curvature="0"/>
      <path id="path38" style="fill-rule:evenodd;fill:#8b5b37" d="m10.359 21.398c0.161-0.796-0.547-1.05-2.121-0.757 0.082 0.078 0.254 0.121 0.524 0.121 0.316 0 0.531 0.011 0.636 0.039v0.199l0.961 0.398z" inkscape:connector-curvature="0"/>
      <path id="path40" style="fill-rule:evenodd;fill:#bf8a62" d="m12.078 18.32c0.11 0.078 0.254 0.215 0.442 0.399 0.695 0.453 1.214 0.586 1.558 0.402 0.137-0.082 0.215-0.199 0.242-0.359 0.082-0.27 0.016-0.481-0.199-0.641v0.199l-0.043 0.399c-0.183 0.054-0.519-0.039-1-0.278l-0.238-0.121-1.442-0.398c-0.691-0.137-1.332-0.215-1.918-0.242h-0.839l-0.282 0.039c-0.586 0.187-1.027 0.308-1.32 0.359l-0.199 0.043h-0.078l-0.961 0.078c-0.16 0.028-0.403 0.039-0.723 0.039-0.453 0-0.812 0.067-1.078 0.203l-0.199 0.118-1.242 0.961v0.039l0.121 0.121c0.425-0.453 0.933-0.774 1.519-0.961 0.321-0.106 0.68-0.133 1.082-0.078 0.239 0.054 0.598 0.121 1.078 0.199 0.536 0.082 1.243-0.028 2.121-0.32 0.985-0.293 1.692-0.442 2.122-0.442h0.957c0.16 0.027 0.336 0.11 0.519 0.242z" inkscape:connector-curvature="0"/>
      <path id="path42" style="fill-rule:evenodd;fill:#bf8a62" d="m12.602 22.602h0.398l0.281-0.043 0.239-0.079-0.52-0.402c-0.426-0.293-1-0.383-1.719-0.277l-0.16 0.039h-0.082l0.121 0.039c0.051 0.027 0.348 0.109 0.879 0.242 0.348 0.106 0.535 0.266 0.563 0.481z" inkscape:connector-curvature="0"/>
      <path id="path44" style="fill-rule:evenodd;fill:#bf8a62" d="m8.559 22.961 1.043 0.039-0.321-0.121c-0.695-0.106-1.226-0.227-1.601-0.359-0.535-0.215-0.973-0.442-1.321-0.68-0.347-0.188-0.558-0.32-0.64-0.399-0.16-0.136-0.16-0.363 0-0.679 0.269-0.508 1-0.789 2.203-0.84h-3.082c-1.172 0-1.895-0.082-2.16-0.242l-0.121-0.121-0.278 0.16-0.043-0.078-0.039-0.039-0.078-0.204-0.16 0.403c0.211 0.051 0.531 0.187 0.961 0.398 0.078 0.028 0.359 0.055 0.84 0.082 0.343 0.024 0.597 0.117 0.758 0.278 0.082 0.082 0.132 0.203 0.16 0.363l0.082 0.359c0.133 0.344 0.476 0.664 1.039 0.957l0.84 0.321 0.078 0.043 1.84 0.359z" inkscape:connector-curvature="0"/>
      <path id="path46" style="fill-rule:evenodd;fill:#bf8a62" d="m13.801 20.359 0.078 0.039c0.32-0.105 0.547-0.21 0.683-0.32-0.457-0.266-1.054-0.359-1.8-0.277l-0.121 0.039c0.132 0.187 0.519 0.359 1.16 0.519z" inkscape:connector-curvature="0"/>
      <path id="path48" style="fill-rule:evenodd;fill:#bf8a62" d="m15.039 20.359c-0.293 0.106-0.625 0.161-1 0.161l0.641 0.359 0.32 0.242 0.68-0.121-0.2-0.078 0.04-0.082-0.481-0.481z" inkscape:connector-curvature="0"/>
      <path id="path50" style="fill-rule:evenodd;fill:#bf8a62" d="m7.32 21.52c0.215 0.082 0.375 0.082 0.481 0v-0.399c-0.133-0.133-0.293-0.16-0.481-0.082-0.105 0.16-0.105 0.32 0 0.481z" inkscape:connector-curvature="0"/>
      <path id="path52" style="fill-rule:evenodd;fill:#bf8a62" d="m12.359 21.281c-0.211-0.054-0.359-0.015-0.437 0.117 0.051 0.137 0.144 0.176 0.277 0.122l0.16-0.239z" inkscape:connector-curvature="0"/>
      <path id="path54" style="fill-rule:evenodd;fill:#493322" d="m14.039 20.52c0.375 0 0.707-0.051 1-0.161 0.133-0.027 0.281-0.121 0.441-0.281l0.082-0.078c0.106-0.105 0.25-0.52 0.438-1.238 0.027-0.188 0.066-0.617 0.121-1.282l-0.961 1.641c-0.082 0.266-0.172 0.465-0.281 0.598l-0.32 0.359c-0.133 0.11-0.36 0.215-0.68 0.32l-0.84 0.082h0.641l0.359 0.04z" inkscape:connector-curvature="0"/>
      <path id="path56" style="fill-rule:evenodd;fill:#493322" d="m15.52 20.84-0.04 0.082 0.2 0.078c0.16 0.027 0.359-0.055 0.601-0.238 0.16-0.137 0.266-0.282 0.321-0.442l-0.122-0.242c0.028 0.27-0.093 0.442-0.359 0.524l-0.601 0.238z" inkscape:connector-curvature="0"/>
      <path id="path58" style="fill-rule:evenodd;fill:#634229" d="m18.84 18.441-0.602 0.481c0.485-0.11 0.801-0.309 0.961-0.602l0.199-0.48-0.437 0.48h0.039l-0.039 0.039-0.121 0.082z" inkscape:connector-curvature="0"/>
      <path id="path60" style="fill-rule:evenodd;fill:#634229" d="m20.16 17 0.078-0.84c0.11 0.028 0.215 0.121 0.321 0.281 0.132-0.347 0.203-0.773 0.203-1.281 0.183 0.215 0.277 0.465 0.277 0.762 0.215-0.027 0.426-0.297 0.641-0.801 0.187-0.426 0.281-0.773 0.281-1.043 0-0.183-0.027-0.359-0.082-0.519l-0.156-0.438c-0.028-0.109-0.043-0.453-0.043-1.043l0.082-0.758-0.082-0.039c-0.051-0.054-0.2-0.066-0.442-0.043-0.238 0.028-0.398 0.043-0.476 0.043-0.43 0-0.762 0.239-1 0.719-0.297 0.641-0.551 1.027-0.762 1.16l-0.121 0.36c0.027 0.187-0.051 0.359-0.238 0.519-0.215 0.188-0.375 0.336-0.481 0.441 0.266-0.132 0.641-0.402 1.117-0.8 0.457-0.293 0.856-0.375 1.203-0.239 0.133 1.547 0.012 2.348-0.359 2.399 0 0.508-0.176 1.066-0.519 1.68l0.558-0.52z" inkscape:connector-curvature="0"/>
      <path id="path62" style="fill-rule:evenodd;fill:#634229" d="m16.48 11-0.121 0.68c-0.32 0-0.57-0.2-0.757-0.602-0.161-0.344-0.215-0.68-0.161-1 0.559 0.348 0.907 0.656 1.039 0.922zm0.68-0.68-0.16 0.399c-0.105-0.266-0.133-0.481-0.078-0.641 0.078 0.027 0.156 0.11 0.238 0.242zm1.039 1.36c0.188 0.082 0.336 0.293 0.442 0.64 0.132 0.375 0.238 0.586 0.32 0.641 0.078-0.188 0.184-0.496 0.316-0.922 0.321-0.613 0.496-1.078 0.524-1.398 0.078-0.453 0.051-0.774-0.082-0.961-0.082-0.133-0.188-0.215-0.321-0.239-0.187-0.027-0.32-0.066-0.398-0.121-0.133-0.105-0.199-0.215-0.199-0.32 0-0.211-0.016-0.348-0.043-0.398-0.078-0.188-0.16-0.309-0.238-0.36-0.028-0.027-0.188-0.082-0.481-0.16l-0.199-0.043c-0.059 0.234 0.015 0.43 0.219 0.582-0.266-0.148-0.457-0.258-0.579-0.34-0.269-0.133-0.574-0.121-0.921 0.039-0.348 0.16-0.493 0.414-0.438 0.758 0.078 0.563 0.106 0.883 0.078 0.961-0.371-0.105-0.664-0.133-0.879-0.078-0.082 0.453-0.093 0.973-0.043 1.559 0.055 0.347 0.121 0.585 0.203 0.718 0.106 0.16 0.293 0.321 0.559 0.481 0.32-0.344 0.68-0.504 1.082-0.481l0.641 0.043c-0.59-0.269-1.137-0.375-1.641-0.32 0.238-0.133 0.586-0.242 1.039-0.32 0.481-0.082 0.828-0.067 1.039 0.039z" inkscape:connector-curvature="0"/>
      <path id="path64" style="fill-rule:evenodd;fill:#634229" d="m14.078 16.922 0.043 0.199v0.16c0.32 0.106 0.57 0.067 0.758-0.121 0.133-0.105 0.215-0.359 0.242-0.762 0.027-0.343 0.117-0.586 0.281-0.718 0.16-0.106 0.36-0.16 0.598-0.16h0.602c-0.028-0.188-0.161-0.332-0.403-0.442-0.293-0.105-0.465-0.211-0.519-0.316-0.184-0.242-0.227-0.602-0.118-1.082l0.118-0.321c-0.157 0.106-0.278 0.254-0.36 0.442-0.05 0.133-0.05 0.277 0 0.437 0.055 0.215 0.082 0.336 0.082 0.364 0 0.265-0.187 0.703-0.562 1.32-0.371 0.558-0.531 1.012-0.477 1.359l-0.285-0.64v0.281z" inkscape:connector-curvature="0"/>
      <path id="path66" style="fill-rule:evenodd;fill:#593c26" d="m20.762 11.281c0.078 0 0.238-0.015 0.476-0.043 0.242-0.023 0.387-0.011 0.442 0.043l0.082 0.039c0.05-0.855 0.05-1.441 0-1.761-0.137-0.614-0.469-0.891-1-0.84v-0.68c0-0.238-0.055-0.453-0.16-0.641-0.082-0.187-0.309-0.398-0.68-0.64-0.137 0.137-0.348 0.226-0.645 0.281-0.371 0.055-0.636 0.133-0.797 0.238-0.347 0.188-0.558 0.442-0.64 0.762l0.199 0.039c0.293 0.082 0.453 0.133 0.481 0.16 0.082 0.055 0.16 0.176 0.242 0.36 0.023 0.054 0.039 0.187 0.039 0.402 0 0.105 0.066 0.211 0.199 0.32 0.078 0.051 0.215 0.09 0.398 0.118 0.137 0.027 0.243 0.109 0.321 0.242 0.133 0.183 0.16 0.508 0.082 0.957-0.028 0.32-0.199 0.789-0.52 1.402-0.133 0.426-0.242 0.734-0.32 0.918l0.039 0.043v0.16c0.215-0.137 0.469-0.523 0.762-1.16 0.238-0.48 0.57-0.719 1-0.719z" inkscape:connector-curvature="0"/>
      <path id="path68" style="fill-rule:evenodd;fill:#593c26" d="m16.961 15.398c-0.215 0.321-0.348 0.59-0.402 0.801 0.375-0.238 0.855-0.773 1.441-1.597l0.16-0.122c0.106-0.105 0.266-0.253 0.481-0.441 0.187-0.16 0.265-0.332 0.238-0.519l0.121-0.36v-0.16l-0.039-0.039c-0.082-0.055-0.188-0.266-0.32-0.641-0.106-0.347-0.254-0.558-0.442-0.64-0.211-0.106-0.558-0.121-1.039-0.039-0.453 0.078-0.801 0.187-1.039 0.32 0.504-0.055 1.051 0.051 1.641 0.32 0.613 0.266 0.824 0.614 0.636 1.039-0.023 0.055-0.32 0.442-0.878 1.16l-0.079 0.122c-0.214 0.343-0.375 0.613-0.48 0.796z" inkscape:connector-curvature="0"/>
      <path id="path70" style="fill-rule:evenodd;fill:#593c26" d="m20.238 16.16-0.078 0.84l0.16-0.16 0.239-0.399c-0.106-0.16-0.211-0.253-0.321-0.281z" inkscape:connector-curvature="0"/>
      <path id="path72" style="fill-rule:evenodd;fill:#493322" d="m20.078 18.32c0.188-0.16 0.442-0.425 0.762-0.8 0.453-0.454 0.785-0.934 1-1.442 0.16-0.316 0.254-0.73 0.281-1.238 0.027-0.293 0.051-0.719 0.078-1.281 0-0.211 0.055-0.547 0.16-1 0.082-0.426 0.121-0.758 0.121-1 0.028-0.637-0.015-1.586-0.121-2.84-0.05-1.305-0.504-2.321-1.359-3.039l-0.641-0.68-0.398 0.16c0.266 0.266 0.348 0.625 0.238 1.078-0.105 0.293-0.199 0.469-0.277 0.52 0.371 0.242 0.598 0.453 0.68 0.64 0.105 0.188 0.16 0.403 0.16 0.641v0.68c0.531-0.051 0.867 0.226 1 0.84 0.05 0.32 0.05 0.906 0 1.761l-0.082 0.758c0 0.59 0.015 0.934 0.043 1.043l0.156 0.438c0.055 0.16 0.082 0.336 0.082 0.519 0 0.27-0.094 0.617-0.281 1.043-0.215 0.504-0.426 0.774-0.641 0.801 0-0.297-0.094-0.547-0.277-0.762 0 0.508-0.071 0.934-0.203 1.281l-0.239 0.399-0.718 0.68c-0.082 0.054-0.149 0.16-0.204 0.32l-0.199 0.48c-0.16 0.293-0.48 0.492-0.961 0.602-0.476 0.078-0.785 0.156-0.918 0.238-0.265 0.188-0.414 0.508-0.441 0.961 0 0.399 0.121 0.84 0.359 1.32h0.039c0.11-0.109 0.188-0.32 0.243-0.64 0.027-0.348 0.093-0.586 0.199-0.723 0.109-0.156 0.32-0.332 0.64-0.519 0.215-0.211 0.481-0.399 0.801-0.559s0.625-0.387 0.918-0.68z" inkscape:connector-curvature="0"/>
      <path id="path74" style="fill-rule:evenodd;fill:#8b5b37" d="m18.961 18.32-0.359-0.242c-0.614-0.344-0.922-0.84-0.922-1.476 0-0.536 0.308-1.137 0.922-1.801-0.961 0.133-1.442 0.812-1.442 2.039 0 0.773 0.133 1.238 0.399 1.398 0.132 0.11 0.363 0.16 0.679 0.16 0.16 0 0.403-0.011 0.723-0.039l0.039-0.039h-0.039z" inkscape:connector-curvature="0"/>
      <path id="path76" style="fill-rule:evenodd;fill:#8b5b37" d="m16.48 14.879c-0.347-0.719-0.402-1.277-0.16-1.68-0.242 0.188-0.375 0.309-0.398 0.36-0.082 0.109-0.121 0.281-0.121 0.519 0 0.641 0.187 0.949 0.558 0.922l0.121-0.121z" inkscape:connector-curvature="0"/>
      <path id="path78" style="fill-rule:evenodd;fill:#8b5b37" d="m15.441 10.078c-0.054 0.32 0 0.656 0.161 1 0.183 0.402 0.437 0.602 0.757 0.602l0.121-0.68c-0.132-0.266-0.48-0.574-1.039-0.922z" inkscape:connector-curvature="0"/>
      <path id="path80" style="fill-rule:evenodd;fill:#8b5b37" d="m16.922 10.078c-0.055 0.16-0.027 0.375 0.078 0.645l0.16-0.403c-0.082-0.132-0.16-0.215-0.238-0.242z" inkscape:connector-curvature="0"/>
      <path id="path82" style="fill-rule:evenodd;fill:#493322" d="m14.039 15.441 0.039 1.2 0.281 0.64c-0.05-0.347 0.11-0.801 0.481-1.359 0.375-0.617 0.562-1.055 0.562-1.32 0-0.028-0.027-0.149-0.082-0.364-0.054-0.16-0.054-0.304 0-0.437 0.082-0.188 0.2-0.336 0.36-0.442 0.242-0.238 0.375-0.453 0.398-0.64h-0.039c-0.266-0.16-0.453-0.321-0.559-0.481-0.082-0.133-0.148-0.371-0.199-0.718-0.054-0.586-0.043-1.106 0.039-1.559 0.215-0.055 0.508-0.027 0.879 0.078 0.028-0.078 0-0.398-0.078-0.961-0.055-0.344 0.094-0.598 0.441-0.758 0.344-0.16 0.653-0.172 0.918-0.039 0.122 0.082 0.317 0.192 0.582 0.34-0.207-0.152-0.281-0.348-0.222-0.582 0.082-0.316 0.293-0.574 0.64-0.758 0.161-0.109 0.426-0.187 0.801-0.242 0.293-0.051 0.508-0.144 0.641-0.277 0.078-0.055 0.172-0.227 0.281-0.524 0.106-0.449 0.024-0.812-0.242-1.078-1.039 0.375-1.801 0.746-2.281 1.117l-0.879 0.684c-0.641 0.426-1.094 0.812-1.36 1.16-0.242 0.293-0.429 0.625-0.562 1l-0.16 0.438-0.039 0.242-0.039 0.121c-0.082 0.398-0.137 1.039-0.161 1.918-0.054 0.851-0.121 1.48-0.203 1.879l-0.078 0.359v0.16c-0.027 0.137-0.078 0.535-0.16 1.203z" inkscape:connector-curvature="0"/>
      <path id="path84" style="fill-rule:evenodd;fill:#8b5b37" d="m5.602 10.281c-0.055-0.133-0.016-0.293 0.117-0.48-0.133-0.028-0.321-0.149-0.559-0.36-0.238-0.187-0.465-0.293-0.68-0.32 0.161 0.188 0.305 0.441 0.442 0.758 0.156 0.375 0.277 0.641 0.359 0.801 0.293-0.239 0.465-0.399 0.52-0.481l-0.199 0.082z" inkscape:connector-curvature="0"/>
      <path id="path86" style="fill-rule:evenodd;fill:#8b5b37" d="m1.961 13.762 0.039-0.203c0.375-0.161 0.602-0.051 0.68 0.32 0.054 0.375-0.012 0.695-0.2 0.961l-0.16-0.16-0.242 0.32c-0.238-0.055-0.371-0.266-0.398-0.641-0.028-0.347 0.066-0.547 0.281-0.597zm0.918 2.84c-0.266 0.023-0.547-0.094-0.84-0.364-0.32-0.293-0.387-0.57-0.199-0.84 0.238-0.32 0.508-0.293 0.801 0.082 0.265 0.321 0.398 0.641 0.398 0.961l-0.16 0.161zm8.801-4.321 0.043-0.082c0.343-0.078 0.465 0.094 0.355 0.52l-0.238-0.117c-0.133-0.082-0.188-0.188-0.16-0.321zm2.398 4.641v-0.402l-0.519-0.321c-0.371 0.055-0.653-0.359-0.84-1.238-0.215-0.856-0.145-1.375 0.203-1.563 0.504-0.238 0.93 0.028 1.277 0.801v-0.121l0.082-0.359c-0.242-0.16-0.414-0.293-0.519-0.399-0.215-0.16-0.336-0.308-0.36-0.441 0-0.133 0.106-0.266 0.321-0.399 0.238-0.16 0.371-0.281 0.398-0.359 0.078-0.133 0.117-0.336 0.117-0.601v-0.641c0.028-0.266 0.16-0.586 0.403-0.957l0.039-0.121-0.039 0.078 0.238-0.758v-0.281l-0.801 1.281v1.399l-0.117-1.239c-0.586 0.957-0.934 1.586-1.039 1.879-0.254 0.57-0.391 1.145-0.402 1.719-0.012-0.317-0.028-0.797-0.04-1.438-0.027-0.718-0.015-1.336 0.04-1.839 0.027-0.161 0.039-0.387 0.039-0.68 0.027-0.242 0.093-0.453 0.203-0.641 0.133-0.187 0.359-0.402 0.679-0.64l-0.082-0.082-0.199 0.281-0.199-0.238h-0.32l-0.039-0.204c-0.188 0.27-0.403 0.442-0.641 0.524v0.199c0 0.559-0.121 1.266-0.359 2.117l0.078 1.039-0.16-0.757-0.36 1.199-0.16-3.438-0.039-0.203-0.082-0.117-0.199-0.059c0.132 0.368 0.172 0.895 0.121 1.578-0.106 1.04-0.16 1.575-0.16 1.602v1.957l0.078 0.641 0.16 0.039-0.117 0.801c-0.082 0.535-0.414 0.921-1 1.16-0.028 0-0.59 0.148-1.684 0.441h-2.238c-0.586-0.055-1.039-0.082-1.36-0.082-0.558-0.027-0.988 0.039-1.281 0.199l-0.039-0.519c0.028-0.184 0.051-0.293 0.078-0.321 0.028-0.023 0.121-0.078 0.282-0.16 0.292-0.293 0.492-0.558 0.601-0.797 0.078-0.214 0.117-0.507 0.117-0.882-0.183-0.079-0.183-0.211 0-0.399l-0.039-0.719c-0.078-0.027-0.414-0.043-1-0.043-0.398-0.023-0.707-0.105-0.918-0.238-0.375-0.215-0.519-0.613-0.441-1.199 0.055-0.32 0.172-0.816 0.359-1.481-0.504 0.875-0.758 1.95-0.758 3.219-0.003-0.156-0.058-0.39-0.16-0.699-0.136-0.32-0.203-0.562-0.203-0.723-0.051-0.238-0.078-0.586-0.078-1.039-0.426-0.105-0.719 0.36-0.879 1.403 0.051 0.558 0.094 0.957 0.117 1.199l0.082 0.359c0.055 0.242 0.121 0.414 0.2 0.52 0.16 0.242 0.453 0.547 0.878 0.922l0.442 0.879c0.336 0.699 0.785 1.07 1.34 1.121-0.242-0.008-0.477 0.109-0.7 0.359-0.292 0.348-0.519 0.613-0.679 0.801l0.32 0.597 0.039 0.122 0.32-0.399 0.282-0.762c0.105-0.32 0.293-0.519 0.558-0.597l0.36-0.043c0.375-0.321 0.734-0.504 1.082-0.559 0.398-0.105 0.718 0.012 0.957 0.36 0.32-0.161 0.586-0.254 0.801-0.282 0.242 0 0.574 0.055 1 0.16-0.055 0.188-0.282 0.43-0.68 0.723l0.199-0.043c0.293-0.051 0.734-0.172 1.32-0.359 0.161-0.239 0.348-0.426 0.563-0.559l0.039-0.039c0.344-0.293 0.812-0.387 1.398-0.281 0.188 0.055 0.414 0.172 0.68 0.359 0.508 0.16 1.055 0.215 1.641 0.16l0.16-0.16c-0.188-0.16-0.227-0.347-0.117-0.558 0.078-0.215 0.183-0.243 0.316-0.082v-0.36c0.16-0.027 0.281 0.039 0.359 0.199 0.137 0.215 0.227 0.336 0.282 0.364 0.16 0.105 0.293 0.16 0.398 0.16z" inkscape:connector-curvature="0"/>
      <path id="path88" style="fill-rule:evenodd;fill:#8b5b37" d="m5.32 13.52c0.239 0.906 0.707 1.492 1.399 1.761 0.562 0.184 1.054 0.16 1.48-0.082l-0.359-0.078c-0.266 0.027-0.586-0.148-0.961-0.519-0.371-0.375-0.481-0.696-0.32-0.961 0.082-0.133 0.281-0.215 0.601-0.243 0.293-0.023 0.481-0.117 0.559-0.277 0.082-0.133 0.066-0.695-0.039-1.68l0.48 0.239-0.16-0.36c-0.105-0.132-0.293-0.281-0.559-0.441-0.214 0-0.347-0.024-0.402-0.078v-0.039l-0.16-0.043c-0.266-0.051-0.641-0.039-1.117 0.043-0.563 0.105-0.895 0.25-1 0.437 0.05-0.16 0.226-0.332 0.519-0.519l-1.722-1.442h-0.118c-0.214 0.11-0.402 0.242-0.562 0.403l-0.481 0.558c0.59-0.078 0.934-0.078 1.043 0 0.106 0.055 0.278 0.375 0.52 0.961l0.32 0.762 0.039 0.156 0.039-0.039c0.348-0.613 0.602-0.598 0.762 0.039 0.106 0.828 0.172 1.309 0.199 1.442z" inkscape:connector-curvature="0"/>
      <path id="path90" style="fill-rule:evenodd;fill:#8b5b37" d="m8.121 10.48c-0.109-0.402-0.066-0.652 0.117-0.757 0.055-0.457 0.348-0.778 0.883-0.961l0.758-0.242-0.84-0.36c-0.371-0.105-0.734-0.133-1.078-0.082-0.375 0.055-0.641 0.203-0.801 0.442v0.082c0.051 0.078 0.051 0.25 0 0.519 0.028 0.078 0.199 0.387 0.52 0.918l0.039 0.121 0.242 0.16 0.16 0.16z" inkscape:connector-curvature="0"/>
      <path id="path92" style="fill-rule:evenodd;fill:#8b5b37" d="m9.16 13.199 0.078 1.121c0.27-0.293 0.364-0.773 0.282-1.441 0-0.211-0.051-0.481-0.161-0.801l-0.359-0.758-0.121 0.078c-0.16-0.05-0.293-0.144-0.399-0.277l0.161 0.918c0.32 0.348 0.492 0.734 0.519 1.16z" inkscape:connector-curvature="0"/>
      <path id="path94" style="fill-rule:evenodd;fill:#805432" d="m14.078 10.121 0.801-1.281c0.055-0.879 0.336-1.492 0.844-1.84l0.515-0.32c-0.05-0.082 0-0.2 0.16-0.36 0.161-0.109 0.321-0.121 0.481-0.043l0.32-0.316c0.133-0.16 0.293-0.414 0.481-0.762l-0.399 0.199c0-0.023 0.051-0.199 0.16-0.519 0.024-0.156 0.145-0.211 0.36-0.156l0.039 0.238c0.16-0.215 0.332-0.375 0.519-0.481 0.188-0.105 0.426-0.187 0.719-0.242l0.723-0.117c-0.453-0.453-0.895-0.746-1.321-0.883-0.773 0.137-1.375 0.403-1.8 0.801-0.106 0.082-0.215 0.227-0.321 0.441 0.082 0.082 0.121 0.161 0.121 0.243l-0.121 0.918h-0.16c-0.051 0.293-0.16 0.519-0.32 0.679-0.133 0.133-0.359 0.266-0.68 0.403-0.32 0.156-0.547 0.316-0.679 0.476l-0.161 0.242-0.078 0.36c-0.133 0.48-0.203 1.254-0.203 2.32z" inkscape:connector-curvature="0"/>
      <path id="path96" style="fill-rule:evenodd;fill:#805432" d="m12.922 12.16c0.105-0.293 0.449-0.922 1.039-1.883l-0.16-1.757c-0.188 0.48-0.309 0.972-0.36 1.48 0.079-1.066 0.133-1.68 0.161-1.84l0.117-0.398-0.16-1.563v-0.121c-0.184-0.105-0.532-0.183-1.039-0.238 0.214 0.215 0.347 0.558 0.402 1.039v0.242l0.359 0.277c0.239 0.321 0.266 0.707 0.078 1.161l0.082 0.082c-0.32 0.238-0.546 0.453-0.679 0.64-0.11 0.184-0.176 0.399-0.2 0.641 0 0.293-0.015 0.519-0.042 0.68-0.051 0.503-0.067 1.121-0.04 1.839 0.016 0.641 0.028 1.121 0.04 1.438 0.011-0.574 0.148-1.149 0.402-1.719z" inkscape:connector-curvature="0"/>
      <path id="path98" style="fill-rule:evenodd;fill:#805432" d="m9.52 4.32-0.2 0.282-0.082 0.16c0.348 0 0.817 0.023 1.403 0.078 0.347 0.027 0.707 0.16 1.082 0.398l0.558 0.364c0.16-0.11 0.465-0.176 0.918-0.204l-0.121-0.199c0.188-0.078 0.402-0.238 0.645-0.48l-0.043-0.399c-0.028-0.293-0.051-0.453-0.078-0.48-0.028-0.082-0.176-0.16-0.442-0.242-0.398-0.078-0.785-0.106-1.16-0.078 0.055 0.16 0.039 0.332-0.039 0.519-0.082 0.16-0.199 0.254-0.359 0.281-0.215 0.024-0.364-0.043-0.442-0.199-0.082-0.16-0.082-0.336 0-0.523l-0.762 0.164c0.215 0.133 0.336 0.226 0.364 0.277l-1.203 0.281h-0.039z" inkscape:connector-curvature="0"/>
      <path id="path100" style="fill-rule:evenodd;fill:#805432" d="m6.602 4.719c-0.457-0.078-0.883 0.015-1.282 0.281l1.321-0.121-0.039-0.16z" inkscape:connector-curvature="0"/>
      <path id="path102" style="fill-rule:evenodd;fill:#805432" d="m11.281 17.641-1.801 0.039c0.586 0.027 1.227 0.105 1.918 0.242l0.282 0.078-0.399-0.359z" inkscape:connector-curvature="0"/>
      <path id="path104" style="fill-rule:evenodd;fill:#805432" d="m14.121 17.121-0.043-0.199c-0.105 0-0.238-0.055-0.398-0.16-0.051-0.028-0.145-0.149-0.282-0.364-0.078-0.16-0.199-0.226-0.359-0.199v0.36c0.082 0.082 0.121 0.269 0.121 0.562l-0.281 0.117-0.039-0.039-0.16 0.16 1.441-0.238z" inkscape:connector-curvature="0"/>
      <path id="path106" style="fill-rule:evenodd;fill:#805432" d="m6.762 17.801v0.32h0.078c0.398-0.293 0.625-0.535 0.68-0.723-0.426-0.105-0.758-0.16-1-0.16-0.215 0.028-0.481 0.121-0.801 0.282l0.082 0.082c0.027 0.023 0.066 0.117 0.121 0.277 0.023 0.109 0.078 0.176 0.156 0.199 0.082 0 0.188-0.051 0.32-0.156 0.137-0.11 0.254-0.149 0.364-0.121z" inkscape:connector-curvature="0"/>
      <path id="path108" style="fill-rule:evenodd;fill:#805432" d="m4 18.441c0.266-0.136 0.625-0.203 1.078-0.203-0.238-0.183-0.519-0.304-0.84-0.359-0.371-0.051-0.652 0-0.84 0.16l0.282-0.32-0.36 0.043c-0.265 0.078-0.453 0.277-0.558 0.597l-0.282 0.762-0.32 0.399 0.039 0.082 0.039 0.039 0.321-0.121 0.363-0.282c0.105-0.105 0.238-0.25 0.398-0.437 0.133-0.133 0.293-0.215 0.481-0.242l0.199-0.118z" inkscape:connector-curvature="0"/>
      <path id="path110" style="fill-rule:evenodd;fill:#805432" d="m7.922 11 0.117 0.359 0.281 0.321c-0.082-0.293-0.215-0.52-0.398-0.68z" inkscape:connector-curvature="0"/>
      <path id="path112" style="fill-rule:evenodd;fill:#805432" d="m8.121 10.48-0.16-0.16-0.242-0.16 0.16 0.442c0.266 0.453 0.426 0.839 0.48 1.16l0.082 0.117 0.2 0.16-0.161-0.918c-0.132-0.16-0.253-0.375-0.359-0.641z" inkscape:connector-curvature="0"/>
      <path id="path114" style="fill-rule:evenodd;fill:#805432" d="m4.762 11.199c0.105-0.187 0.437-0.332 1-0.437 0.476-0.082 0.851-0.094 1.117-0.043l0.16 0.043c-0.051-0.188-0.066-0.364-0.039-0.524-0.453-0.183-0.855-0.199-1.199-0.039-0.055 0.082-0.227 0.242-0.52 0.481-0.293 0.187-0.469 0.359-0.519 0.519z" inkscape:connector-curvature="0"/>
      <path id="path116" style="fill-rule:evenodd;fill:#805432" d="m7.441 10.879c0.266 0.16 0.454 0.309 0.559 0.441l-0.039-0.199-0.121-0.16c-0.078-0.055-0.215-0.082-0.399-0.082z" inkscape:connector-curvature="0"/>
      <path id="path118" style="fill-rule:evenodd;fill:#805432" d="m7.961 8.078c0.344-0.051 0.707-0.023 1.078 0.082l0.84 0.36c0.402-0.079 0.652 0.042 0.762 0.359l0.238 0.082c-0.223-0.649-0.93-0.996-2.117-1.039 0.203-0.012 0.484-0.051 0.84-0.121l-0.563-0.16 1.082 0.082c0.371 0 0.652 0.023 0.84 0.078 0.559-0.078 0.906-0.039 1.039 0.121l0.039 0.199 0.199 0.199-0.238 0.442-0.039 0.16c0.238-0.082 0.453-0.254 0.641-0.524-0.11-0.343-0.348-0.679-0.723-1-0.504-0.238-0.84-0.386-1-0.437-0.691-0.027-1.211-0.066-1.559-0.121 0.106-0.453 0.602-0.719 1.481-0.801h0.758c0.16 0.055 0.269 0.133 0.32 0.242 0.055 0.051 0.121 0.172 0.199 0.36l0.844 0.48v-0.242c-0.055-0.481-0.188-0.824-0.402-1.039l-0.399-0.078 0.156-0.16-0.558-0.364c-0.371-0.238-0.731-0.371-1.078-0.398-0.586-0.051-1.055-0.078-1.403-0.078-0.05 0.718-0.199 1.199-0.437 1.437-0.106 0.11-0.403 0.266-0.879 0.481-0.402 0.16-0.668 0.386-0.801 0.679-0.082 0.215-0.121 0.547-0.121 1l0.16 0.161c0.16-0.239 0.426-0.387 0.801-0.442z" inkscape:connector-curvature="0"/>
      <path id="path120" style="fill-rule:evenodd;fill:#805432" d="m4.48 7-0.519 0.398c-0.188-0.078-0.336-0.132-0.441-0.16-0.188-0.105-0.254-0.238-0.2-0.398 0.078-0.215 0.305-0.305 0.68-0.281 0.375 0 0.535 0.148 0.48 0.441zm0.68 2.441c0.238 0.211 0.426 0.332 0.559 0.36l0.082-0.16v-0.121l-0.242-0.04c0.027-0.105 0.109-0.187 0.242-0.242l-0.082-0.359c-0.133-0.559-0.145-1.012-0.039-1.359 0.187-0.879 0.281-1.332 0.281-1.36 0.027-0.055 0.184-0.254 0.48-0.601 0.161-0.239 0.227-0.465 0.2-0.68l-1.321 0.121c-0.746 0.586-1.332 0.934-1.761 1.039-0.028 0.027-0.239 0.066-0.637 0.121 0 0.188-0.055 0.32-0.16 0.399-0.137 0.109-0.348 0.121-0.641 0.043-0.242-0.055-0.426-0.149-0.562-0.282l0.082-0.082-0.321 0.082c-0.32 0.106-0.625 0.254-0.922 0.442l-0.039 0.277-0.039 0.16-0.039 0.082v0.199l-0.043 0.079v0.082c0.02-0.129 0.086-0.262 0.203-0.403 0.211-0.238 0.493-0.449 0.84-0.636l0.278 0.238c0 0.535-0.028 0.855-0.079 0.961-0.054 0.16-0.199 0.277-0.441 0.359-0.211 0.106-0.398 0.106-0.559 0-0.144-0.121-0.222-0.246-0.242-0.383l-0.039 0.102-0.039 0.32v0.121l-0.039 0.239v0.402l-0.043 0.238-0.078 2.961 0.121 0.481c0.16-1.039 0.453-1.508 0.879-1.403 0 0.457 0.027 0.801 0.078 1.043 0 0.16 0.067 0.399 0.203 0.719 0.102 0.309 0.157 0.543 0.16 0.699 0-1.269 0.254-2.344 0.758-3.219l0.039-0.281h0.16l0.481-0.558c0.16-0.161 0.348-0.293 0.562-0.403h-0.562c-0.133 0.028-0.254 0.094-0.359 0.203l-0.239 0.278c-0.32 0.32-0.508 0.562-0.562 0.722 0.082 0.454 0.027 0.758-0.16 0.918-0.161-0.16-0.227-0.492-0.2-1 0.028-0.507 0.094-0.879 0.2-1.121 0.214-0.426 0.601-0.703 1.16-0.84 0.269-0.05 0.773-0.078 1.519-0.078l0.242 0.801c0.215 0.027 0.442 0.133 0.68 0.32z" inkscape:connector-curvature="0"/>
      <path id="path122" style="fill-rule:evenodd;fill:#704a2d" d="m13.441 10c0.051-0.508 0.172-1 0.36-1.48l-0.082-0.758-0.117 0.398c-0.028 0.16-0.082 0.774-0.161 1.84z" inkscape:connector-curvature="0"/>
      <path id="path124" style="fill-rule:evenodd;fill:#704a2d" d="m13.199 5.398c-0.453 0.028-0.758 0.094-0.918 0.204l-0.16 0.16 0.399 0.078c0.507 0.055 0.855 0.133 1.042 0.238-0.003-0.156-0.121-0.383-0.363-0.68z" inkscape:connector-curvature="0"/>
      <path id="path126" style="fill-rule:evenodd;fill:#704a2d" d="m15.48 3.602c0.082 0.906-0.253 1.957-1 3.16v0.078c0 0.238-0.039 0.441-0.121 0.601l0.161-0.242c0.132-0.16 0.359-0.32 0.679-0.48 0.321-0.133 0.547-0.266 0.68-0.399 0.16-0.16 0.269-0.386 0.32-0.679-0.238-0.028-0.371-0.161-0.398-0.403-0.028-0.183 0.011-0.371 0.121-0.558l-0.082-0.239c-0.051-0.586 0.121-0.8 0.519-0.64 0.055 0.211 0.055 0.437 0 0.679 0.106-0.214 0.215-0.359 0.321-0.441 0.425-0.398 1.027-0.664 1.8-0.801l-0.281-0.078c-0.719 0.078-1.238 0.028-1.558-0.16l-0.282-0.238-0.398 0.316 0.117-0.238-0.598 0.762z" inkscape:connector-curvature="0"/>
      <path id="path128" style="fill-rule:evenodd;fill:#704a2d" d="m15.32 3c0.16-0.027 0.453-0.16 0.879-0.398-0.16-0.161-0.293-0.27-0.398-0.321l-0.922-0.359c-0.371-0.188-0.731-0.32-1.078-0.402h-1c0.105 0.054 0.172 0.148 0.199 0.281h0.121c0.641 0.16 1.09 0.371 1.359 0.64l0.079 0.118c0.347 0 0.601 0.148 0.761 0.441z" inkscape:connector-curvature="0"/>
      <path id="path130" style="fill-rule:evenodd;fill:#704a2d" d="m12.441 1.52c0.024-0.012 0.051-0.016 0.079-0.02-0.36 0.039-0.641 0.086-0.84 0.141 0.109 0.105 0.265 0.16 0.48 0.16 0.055-0.106 0.145-0.199 0.281-0.281z" inkscape:connector-curvature="0"/>
      <path id="path132" style="fill-rule:evenodd;fill:#704a2d" d="m8.039 3v0.039l0.039 0.121c0.137 0.215 0.215 0.399 0.242 0.559l0.039 0.082v0.121c0.055 0.344 0.039 0.652-0.039 0.918l0.16-0.199c0-0.43 0.227-0.719 0.68-0.883 0.426-0.16 0.84-0.16 1.238 0l0.762-0.16c0.051-0.239 0.172-0.344 0.36-0.321l0.039 0.121 0.121-0.277c0.215 0.051 0.32 0.184 0.32 0.399 0.371-0.028 0.758 0 1.16 0.078 0.266 0.082 0.414 0.16 0.438 0.242 0.027 0.027 0.054 0.187 0.082 0.48l0.039 0.399c0.269-0.266 0.441-0.531 0.519-0.797 0.082-0.32 0.016-0.59-0.199-0.801-0.105-0.109-0.359-0.254-0.762-0.441-1.172-0.348-1.863-0.668-2.078-0.961l-1.519 0.32c0.054-0.105 0.148-0.25 0.281-0.437 0.105-0.161 0.144-0.321 0.117-0.481-0.637-0.055-1.156 0-1.558 0.156-0.106 0.055-0.293 0.176-0.559 0.364-0.109 0.558-0.082 1.011 0.078 1.359z" inkscape:connector-curvature="0"/>
      <path id="path134" style="fill-rule:evenodd;fill:#704a2d" d="m6.801 8.16 0.199 0.199c0-0.453 0.039-0.785 0.121-1 0.133-0.293 0.399-0.519 0.801-0.679 0.476-0.215 0.773-0.375 0.879-0.481 0.238-0.238 0.387-0.719 0.437-1.441l0.082-0.16 0.2-0.278c-0.106 0.024-0.254 0.118-0.442 0.278-0.183 0.164-0.344 0.242-0.476 0.242l-0.082 0.558c-0.051 0.11-0.172 0.215-0.36 0.321-0.215 0.082-0.375 0.148-0.48 0.199-0.426 0.242-0.735 0.559-0.918 0.961-0.188 0.43-0.176 0.855 0.039 1.281z" inkscape:connector-curvature="0"/>
      <path id="path136" style="fill-rule:evenodd;fill:#704a2d" d="m3.039 4.199c-0.051-0.187-0.027-0.359 0.082-0.519 0.106-0.133 0.254-0.184 0.438-0.16-0.024 0.132 0.015 0.308 0.121 0.519l-0.641 0.16zm2.641 3.321c-0.106 0.347-0.094 0.8 0.039 1.359l0.082 0.359c0.211-0.105 0.398-0.16 0.558-0.16 0.028-0.293-0.011-0.773-0.121-1.437 0.028-0.508 0.203-0.95 0.524-1.321 0.293-0.375 0.758-0.785 1.398-1.242l-0.879-0.476c-0.082 0.132-0.215 0.16-0.402 0.078-0.238-0.106-0.414-0.172-0.52-0.2-0.64-0.105-1.105-0.082-1.398 0.082 0.184-0.214 0.613-0.386 1.277-0.523l-0.398-0.797c-0.078 0.024-0.16 0.024-0.238 0-0.082-0.187-0.028-0.32 0.16-0.402-0.508-0.078-0.867-0.117-1.082-0.117l-1.442 0.117c-0.636 0.398-1.238 0.906-1.797 1.519l-0.043 0.082-0.16 0.2-0.117 0.121-0.441 0.758v0.039l-0.078 0.32-0.043 0.082v0.117l-0.161 0.684c0.297-0.188 0.602-0.336 0.922-0.442l0.321-0.082 0.437-0.316c-0.211 0.105-0.371 0.144-0.476 0.117-0.11-0.48-0.122-0.785-0.043-0.918 0.109-0.215 0.242-0.293 0.402-0.242 0.105 0.027 0.277 0.109 0.519 0.242h0.559c-0.133 0.027-0.266 0.106-0.398 0.238-0.082 0.098-0.157 0.172-0.219 0.219l0.457-0.34c0.027 0.403 0.043 0.707 0.043 0.922 0.398-0.055 0.613-0.094 0.637-0.121 0.429-0.105 1.015-0.453 1.761-1.039 0.399-0.266 0.825-0.359 1.282-0.281l0.039 0.16c0.027 0.215-0.039 0.441-0.2 0.68-0.296 0.347-0.453 0.546-0.48 0.601 0 0.028-0.094 0.481-0.281 1.36z" inkscape:connector-curvature="0"/>
      <path id="path138" style="fill-rule:evenodd;fill:#704a2d" d="m6.961 3.559c-0.109-0.239-0.094-0.426 0.039-0.559l-0.039-0.398-0.16 0.117c-0.188 0.133-0.469 0.176-0.84 0.121 0.184 0.16 0.277 0.558 0.277 1.199 0.403-0.105 0.641-0.266 0.723-0.48z" inkscape:connector-curvature="0"/>
      <path id="path140" style="fill-rule:evenodd;fill:#704a2d" d="m6.48 9.801c-0.132-0.188-0.359-0.281-0.679-0.281v0.121l-0.082 0.16c-0.133 0.187-0.172 0.347-0.117 0.48l0.199-0.082c0.344-0.16 0.746-0.144 1.199 0.039l0.039-0.718-0.559 0.281z" inkscape:connector-curvature="0"/>
      <path id="path142" style="fill-rule:evenodd;fill:#704a2d" d="m4.48 9.121-0.242-0.801c-0.746 0-1.25 0.028-1.519 0.078-0.559 0.137-0.946 0.414-1.16 0.84-0.106 0.242-0.172 0.617-0.2 1.121-0.027 0.508 0.039 0.84 0.2 1 0.187-0.16 0.242-0.464 0.16-0.918 0.054-0.16 0.242-0.402 0.562-0.718l-0.16 0.078c-0.082-0.613 0.277-1.016 1.078-1.199 0.508-0.11 0.934 0.066 1.281 0.519z" inkscape:connector-curvature="0"/>
      <path id="path144" style="fill-rule:evenodd;fill:#704a2d" d="m4.48 7c0.051-0.293-0.105-0.441-0.48-0.441-0.375-0.024-0.602 0.066-0.68 0.281-0.054 0.16 0.012 0.293 0.2 0.398 0.105 0.028 0.253 0.082 0.441 0.16l0.519-0.398z" inkscape:connector-curvature="0"/>
      <path id="path146" style="fill-rule:evenodd;fill:#704a2d" d="m1.281 6.602c-0.347 0.183-0.629 0.398-0.84 0.636-0.296 0.348-0.281 0.657 0.039 0.922 0.161 0.106 0.348 0.106 0.559 0 0.242-0.082 0.387-0.199 0.441-0.359 0.051-0.106 0.079-0.426 0.079-0.961l-0.278-0.238z" inkscape:connector-curvature="0"/>
      <path id="path148" style="fill-rule:evenodd;fill:#704a2d" d="m1.559 6.32c0.136 0.133 0.32 0.227 0.562 0.282 0.293 0.078 0.504 0.066 0.641-0.043 0.105-0.079 0.16-0.211 0.16-0.399 0-0.215-0.016-0.519-0.043-0.922l-0.641 0.524-0.16 0.16-0.437 0.316-0.082 0.082z" inkscape:connector-curvature="0"/>
      <path id="path150" style="fill-rule:evenodd;fill:#704a2d" d="m11.602 4.32c0.16-0.027 0.277-0.121 0.359-0.281 0.078-0.187 0.094-0.359 0.039-0.519 0-0.215-0.105-0.348-0.32-0.399l-0.121 0.277-0.039-0.117c-0.188-0.027-0.309 0.078-0.36 0.321-0.082 0.183-0.082 0.359 0 0.519 0.078 0.16 0.227 0.227 0.442 0.199z" inkscape:connector-curvature="0"/>
      <path id="path152" style="fill-rule:evenodd;fill:#704a2d" d="m11.039 9.641-0.039-0.243 0.16 3.321 0.36-1.199-0.481-1.879z" inkscape:connector-curvature="0"/>
      <path id="path154" style="fill-rule:evenodd;fill:#704a2d" d="m11.48 8.16c0.161-0.105 0.348-0.121 0.559-0.039l-0.039-0.199c-0.133-0.16-0.48-0.203-1.039-0.121l0.316 0.16c0.11 0.078 0.188 0.199 0.243 0.359l-0.04-0.16z" inkscape:connector-curvature="0"/>
      <path id="path156" style="fill-rule:evenodd;fill:#704a2d" d="m11.68 9.922c-0.051 0.289-0.078 0.73-0.078 1.316 0.238-0.851 0.359-1.558 0.359-2.117v-0.199l0.039-0.16-0.281 0.515-0.039 0.645z" inkscape:connector-curvature="0"/>
      <path id="path158" style="fill-rule:evenodd;fill:#704a2d" d="m8.641 17.68 2.64-0.039-0.922-0.68 0.563 0.199c-0.27-0.215-0.59-0.32-0.961-0.32-0.375 0-0.707 0.094-1 0.281l-0.039 0.039c-0.215 0.133-0.402 0.32-0.563 0.559l0.282-0.039z" inkscape:connector-curvature="0"/>
      <path id="path160" style="fill-rule:evenodd;fill:#704a2d" d="m5.078 18.238c0.32 0 0.563-0.011 0.723-0.039l0.961-0.078v-0.32c-0.11-0.028-0.227 0.011-0.364 0.121-0.132 0.105-0.238 0.156-0.32 0.156-0.078-0.023-0.133-0.09-0.156-0.199-0.055-0.16-0.094-0.254-0.121-0.277l-0.082-0.082c-0.239-0.348-0.559-0.465-0.957-0.36-0.348 0.055-0.707 0.238-1.082 0.559l-0.282 0.32c0.188-0.16 0.469-0.211 0.84-0.16 0.321 0.055 0.602 0.176 0.84 0.359z" inkscape:connector-curvature="0"/>
      <path id="path162" style="fill-rule:evenodd;fill:#5d3e27" d="m4.68 2.719c0.215 0 0.574 0.043 1.082 0.121l0.039-0.039 0.16 0.039c0.371 0.055 0.652 0.012 0.84-0.121l0.16-0.117-0.039-0.282c-0.215-0.054-0.32-0.199-0.32-0.441 0.023-0.16 0.117-0.293 0.277-0.399 0.16-0.105 0.309-0.148 0.441-0.121l0.758-0.359-0.117 0.641c0.266-0.188 0.453-0.305 0.559-0.36 0.402-0.16 0.921-0.215 1.558-0.16 0.027 0.16-0.012 0.32-0.117 0.481-0.133 0.187-0.227 0.332-0.281 0.441l1.519-0.324c-0.187-0.184-0.066-0.371 0.36-0.559-0.024 0.215 0.015 0.375 0.121 0.481 0.293-0.082 0.758-0.149 1.398-0.2l-0.199-0.043c-0.211-0.023-0.652-0.183-1.317-0.476l-0.203-0.121c-1.57 0.027-2.746 0-3.519-0.082v-0.641c-0.985 0.723-1.801 1.281-2.438 1.684l-0.523 0.277-0.117 0.039-1.524 0.762 1.442-0.121z" inkscape:connector-curvature="0"/>
      <path id="path164" style="fill-rule:evenodd;fill:#5d3e27" d="m16.078 2.84-0.117 0.238 0.398-0.316-0.078-0.082-0.203 0.16z" inkscape:connector-curvature="0"/>
      <path id="path166" style="fill-rule:evenodd;fill:#5d3e27" d="m20.359 5c0.188-0.105 0.215-0.227 0.082-0.359-0.242-0.188-0.441-0.348-0.601-0.481l-0.039-0.039-0.723 0.117c-0.289 0.055-0.531 0.133-0.719 0.242-0.183 0.106-0.359 0.266-0.519 0.481v0.16l-0.16 0.078c-0.184 0.348-0.344 0.602-0.481 0.762l-0.32 0.32c0.133 0.106 0.226 0.239 0.281 0.399l0.52-0.399c0.48-0.375 1.242-0.746 2.281-1.121l0.398-0.16z" inkscape:connector-curvature="0"/>
      <path id="path168" style="fill-rule:evenodd;fill:#5d3e27" d="m15.719 7c-0.508 0.348-0.785 0.961-0.84 1.84v0.281c0.133-0.375 0.32-0.707 0.559-1 0.269-0.348 0.722-0.734 1.363-1.16-0.297-0.055-0.481-0.149-0.563-0.281l-0.519 0.32z" inkscape:connector-curvature="0"/>
      <path id="path170" style="fill-rule:evenodd;fill:#5d3e27" d="m11.68 12.281-0.078-1.043c0-0.586 0.023-1.023 0.078-1.316l0.043-0.641-0.161 0.239c0-0.719-0.015-1.118-0.042-1.2-0.051-0.16-0.133-0.281-0.239-0.359l-0.32-0.16c-0.188-0.055-0.469-0.082-0.84-0.082l-0.519 0.082c-0.356 0.07-0.637 0.109-0.84 0.121 1.187 0.043 1.894 0.387 2.117 1.039l0.082 0.117 0.039 0.199v0.121l0.039 0.243 0.641 2.64z" inkscape:connector-curvature="0"/>
      <path id="path172" style="fill-rule:evenodd;fill:#5d3e27" d="m14.078 11.52v-1.399c0-1.066 0.07-1.844 0.203-2.32l0.078-0.36c0.082-0.16 0.121-0.363 0.121-0.601v-0.078l-0.121 0.238 0.121-2.68c0-0.215 0.012-0.535 0.04-0.961-0.055-0.187-0.149-0.425-0.282-0.718l0.321-0.082-0.079-0.118c-0.265-0.269-0.718-0.48-1.359-0.64h-0.121l0.039 0.238h-0.16c-0.531 0.109-0.774 0.027-0.719-0.238-0.211 0-0.371-0.055-0.48-0.16-0.106-0.106-0.145-0.266-0.118-0.481-0.429 0.188-0.546 0.375-0.359 0.559 0.211 0.293 0.906 0.613 2.078 0.961 0.399 0.187 0.653 0.332 0.762 0.441 0.211 0.211 0.281 0.481 0.199 0.801-0.082 0.266-0.254 0.531-0.519 0.797-0.243 0.242-0.453 0.402-0.641 0.48l0.117 0.199c0.242 0.297 0.36 0.524 0.36 0.68v0.121l0.519 5.321z" inkscape:connector-curvature="0"/>
      <path id="path174" style="fill-rule:evenodd;fill:#5d3e27" d="m15.48 3.602 0.598-0.762 0.203-0.16-0.082-0.078c-0.426 0.238-0.719 0.371-0.879 0.398l0.118 0.238 0.042 0.364z" inkscape:connector-curvature="0"/>
      <path id="path176" style="fill-rule:evenodd;fill:#5d3e27" d="m7.879 10.602-0.199-0.563c-0.321-0.531-0.492-0.84-0.52-0.918 0.051-0.266 0.051-0.441 0-0.519v-0.082l-0.359-0.36c-0.215-0.426-0.227-0.851-0.039-1.281 0.183-0.399 0.492-0.719 0.918-0.957 0.105-0.055 0.265-0.121 0.48-0.203 0.188-0.106 0.305-0.211 0.36-0.321l0.082-0.558h-0.082l-0.04-0.199-0.16 0.199-0.082 0.281-0.078-0.043c-0.64 0.457-1.105 0.867-1.398 1.242-0.321 0.375-0.496 0.813-0.524 1.321 0.11 0.668 0.149 1.148 0.121 1.437-0.16 0-0.347 0.055-0.558 0.16-0.133 0.055-0.215 0.137-0.242 0.242l0.242 0.04c0.32 0 0.547 0.093 0.679 0.281l0.559-0.281-0.039 0.718c-0.027 0.16-0.012 0.336 0.039 0.524v0.039c0.055 0.051 0.188 0.078 0.402 0.078 0.184 0 0.321 0.027 0.399 0.082l0.121 0.16-0.039-0.121-0.043-0.398z" inkscape:connector-curvature="0"/>
      <path id="path178" style="fill-rule:evenodd;fill:#5d3e27" d="m6.238 4.039c-0.664 0.133-1.093 0.309-1.277 0.52 0.293-0.161 0.758-0.184 1.398-0.079 0.106 0.028 0.282 0.094 0.52 0.2 0.187 0.082 0.32 0.054 0.402-0.078l0.957 0.519 0.082-0.281c0.078-0.266 0.094-0.574 0.039-0.918v-0.121c-0.027 0-0.254 0.039-0.679 0.121-0.266 0.023-0.465-0.055-0.602-0.242l-0.117-0.121c-0.082 0.214-0.32 0.375-0.723 0.48z" inkscape:connector-curvature="0"/>
      <path id="path180" style="fill-rule:evenodd;fill:#5d3e27" d="m8.039 3.039v-0.039c-0.16-0.348-0.184-0.801-0.078-1.359l0.117-0.641-0.758 0.359c0.16 0 0.239 0.094 0.239 0.282l-0.278 0.679h-0.359l0.078 0.68c0.133-0.133 0.32-0.188 0.559-0.16 0.214 0 0.375 0.066 0.48 0.199z" inkscape:connector-curvature="0"/>
      <path id="path182" style="fill-rule:evenodd;fill:#5d3e27" d="m5.281 10.68c-0.082-0.16-0.203-0.426-0.359-0.801-0.137-0.32-0.281-0.57-0.442-0.758-0.347-0.453-0.773-0.629-1.281-0.519-0.801 0.183-1.16 0.586-1.078 1.199l0.16-0.082 0.239-0.281c0.105-0.106 0.226-0.172 0.359-0.2h0.68l1.722 1.442z" inkscape:connector-curvature="0"/>
      <path id="path184" style="fill-rule:evenodd;fill:#805432" d="m8.762 14.602-0.403 0.117c-0.371 0.082-0.597-0.039-0.679-0.36-0.055-0.293 0.039-0.531 0.281-0.718 0.371-0.266 0.613-0.254 0.719 0.039 0.054 0.105 0.082 0.414 0.082 0.922zm-1.043-1.481c-0.078 0.16-0.266 0.254-0.559 0.277-0.32 0.028-0.519 0.11-0.601 0.243-0.161 0.265-0.051 0.586 0.32 0.961 0.375 0.371 0.695 0.546 0.961 0.519l0.359 0.078c0.293-0.133 0.547-0.332 0.762-0.597l0.277-0.282-0.078-1.121c-0.027-0.426-0.199-0.812-0.519-1.16l-0.2-0.16-0.082-0.039v-0.039l-0.16-0.121h-0.039l-0.48-0.239c0.105 0.985 0.121 1.547 0.039 1.68z" inkscape:connector-curvature="0"/>
      <path id="path186" style="fill-rule:evenodd;fill:#805432" d="m2.238 15.879c-0.023-0.106-0.023-0.227 0-0.359 0.348-0.051 0.481 0.214 0.403 0.8l-0.161-0.398c-0.054 0.023-0.132 0.012-0.242-0.043zm0.801 0.562c0-0.32-0.133-0.64-0.398-0.961-0.293-0.375-0.563-0.402-0.801-0.082-0.188 0.27-0.121 0.547 0.199 0.84 0.293 0.27 0.574 0.387 0.84 0.364l0.16-0.161z" inkscape:connector-curvature="0"/>
      <path id="path188" style="fill-rule:evenodd;fill:#805432" d="m1.961 13.762c-0.215 0.05-0.309 0.25-0.281 0.597 0.027 0.375 0.16 0.586 0.398 0.641l0.242-0.32-0.242-0.239c-0.133-0.16-0.172-0.386-0.117-0.679z" inkscape:connector-curvature="0"/>
      <path id="path190" style="fill-rule:evenodd;fill:#805432" d="m14.078 16.52-0.039-1.079-0.48 0.079c-0.266 0-0.438-0.122-0.52-0.36 0.242-0.105 0.375-0.32 0.402-0.64 0.051-0.293 0.012-0.532-0.121-0.719 0.348-0.106 0.641 0.039 0.879 0.437v-0.039c-0.344-0.773-0.773-1.039-1.277-0.801-0.348 0.188-0.414 0.707-0.199 1.563 0.183 0.879 0.465 1.293 0.839 1.238l0.516 0.321z" inkscape:connector-curvature="0"/>
      <path id="path192" style="fill-rule:evenodd;fill:#5d3e27" d="m7.961 13.641c-0.242 0.187-0.336 0.425-0.281 0.718 0.082 0.321 0.308 0.442 0.679 0.36l0.403-0.117c0-0.508-0.028-0.817-0.082-0.922-0.106-0.293-0.348-0.305-0.719-0.039z" inkscape:connector-curvature="0"/>
      <path id="path194" style="fill-rule:evenodd;fill:#5d3e27" d="m13.559 15.52 0.48-0.079c0.082-0.668 0.133-1.066 0.16-1.203-0.238-0.398-0.531-0.543-0.879-0.437 0.133 0.187 0.172 0.426 0.118 0.719-0.024 0.32-0.161 0.535-0.399 0.64 0.082 0.238 0.254 0.36 0.52 0.36z" inkscape:connector-curvature="0"/>
      <path id="path196" style="fill-rule:evenodd;fill:#5d3e27" d="m14.121 18.32h-0.801l-0.242 0.121c0.484 0.239 0.817 0.332 1 0.278l0.043-0.399z" inkscape:connector-curvature="0"/>
      <path id="path198" style="fill-rule:evenodd;fill:#5d3e27" d="m2.641 16.32c0.078-0.586-0.055-0.851-0.403-0.8-0.023 0.132-0.023 0.253 0 0.359 0.11 0.055 0.188 0.066 0.242 0.043l0.161 0.398z" inkscape:connector-curvature="0"/>
      <path id="path200" style="fill-rule:evenodd;fill:#5d3e27" d="m2.078 14.441 0.402 0.399c0.188-0.266 0.254-0.586 0.2-0.961-0.078-0.371-0.305-0.481-0.68-0.32l-0.039 0.203c-0.055 0.293-0.016 0.519 0.117 0.679z" inkscape:connector-curvature="0"/>
      <path id="path202" style="fill-rule:evenodd;fill:#5d3e27" d="m1.602 6.039c0.105 0.027 0.265-0.012 0.476-0.117l0.16-0.16c0.11-0.082 0.242-0.215 0.403-0.403 0.132-0.132 0.265-0.211 0.398-0.238h-0.559c-0.242-0.133-0.414-0.215-0.519-0.242-0.16-0.051-0.293 0.027-0.402 0.242-0.079 0.133-0.067 0.438 0.043 0.918z" inkscape:connector-curvature="0"/>
      <path id="path204" style="fill-rule:evenodd;fill:#5d3e27" d="m3.559 3.52c-0.184-0.028-0.332 0.027-0.438 0.16-0.109 0.16-0.133 0.332-0.082 0.519l0.641-0.16c-0.106-0.211-0.145-0.387-0.121-0.519z" inkscape:connector-curvature="0"/>
      <path id="path206" style="fill-rule:evenodd;fill:#493322" d="m7.84 0.719c0.773 0.082 1.949 0.109 3.519 0.082-0.425-0.188-0.972-0.348-1.64-0.481-0.774-0.132-1.344-0.242-1.719-0.32h-0.039l-0.121 0.078v0.641z" inkscape:connector-curvature="0"/>
      <path id="path208" style="fill-rule:evenodd;fill:#9d663e" d="m9.441 10.602c-0.269-0.27-0.214-0.454 0.161-0.563 0.398-0.105 0.558 0.027 0.476 0.402l-0.637 0.161zm0.918 3.039-0.398-0.243c-0.133-0.16-0.176-0.332-0.121-0.519 0.187-0.078 0.359-0.078 0.519 0v0.762zm-1.597 2.16c-0.11-0.106-0.149-0.242-0.121-0.403 0.16-0.05 0.293-0.011 0.398 0.122l-0.277 0.281zm-4.282 1.238c0.321 0 0.774 0.027 1.36 0.082h2.238c1.094-0.293 1.656-0.441 1.684-0.441 0.586-0.239 0.918-0.625 1-1.16l0.039-0.321-0.039 0.039c-0.188-0.05-0.282-0.16-0.282-0.316 0-0.137 0.079-0.215 0.239-0.242l-0.078-0.641v-1.961c0-0.023 0.054-0.558 0.16-1.598 0.051-0.691 0.011-1.226-0.121-1.601h-0.039c-0.106-0.317-0.36-0.438-0.762-0.359l-0.758 0.242c-0.535 0.183-0.828 0.504-0.883 0.961 0.137-0.11 0.309-0.121 0.524-0.043 0.05 0.668 0.226 1.148 0.519 1.441l-0.281 0.199 0.281 0.559 0.039-0.199c0.133-0.055 0.266-0.055 0.399 0 0.109 0.082 0.148 0.199 0.121 0.359l-0.16 0.16c-0.133 0-0.239-0.039-0.321-0.121 0.106 0.32 0.161 0.59 0.161 0.801 0.082 0.668-0.012 1.148-0.282 1.441l-0.277 0.282c-0.215 0.265-0.469 0.464-0.762 0.597-0.426 0.242-0.918 0.266-1.48 0.082-0.692-0.269-1.16-0.855-1.399-1.761-0.027-0.133-0.093-0.614-0.199-1.442-0.16-0.637-0.414-0.652-0.762-0.039l-0.039 0.039c0.266 0.641 0.453 1.215 0.559 1.723l-0.117-0.16c-0.11-0.082-0.297-0.149-0.563-0.2l0.039 0.719c0.082-0.133 0.254-0.16 0.524-0.082 0.05 0.082 0.05 0.16 0 0.242l-0.282 0.282-0.242-0.043c0 0.375-0.039 0.668-0.117 0.882-0.109 0.239-0.309 0.504-0.601 0.797-0.161 0.082-0.254 0.137-0.282 0.16-0.023 0.028-0.05 0.137-0.078 0.321l0.039 0.519c0.293-0.16 0.723-0.226 1.281-0.199zm0.04-1.117c0.132-0.297 0.375-0.336 0.718-0.121 0.321 0.187 0.524 0.398 0.602 0.64h-0.801c-0.16 0.051-0.305 0.012-0.437-0.121-0.137-0.105-0.161-0.242-0.082-0.398z" inkscape:connector-curvature="0"/>
      <path id="path210" style="fill-rule:evenodd;fill:#9d663e" d="m2.559 19.559v-0.039l-0.321 0.121 0.043 0.078 0.278-0.16z" inkscape:connector-curvature="0"/>
      <path id="path212" style="fill-rule:evenodd;fill:#9d663e" d="m2.48 18c0.223-0.25 0.458-0.367 0.7-0.359-0.559-0.051-1.004-0.422-1.34-1.121l-0.442-0.879c-0.425-0.375-0.718-0.68-0.878-0.922-0.079-0.106-0.145-0.278-0.2-0.52v0.121l0.039 0.2 0.039 0.121 0.043 0.238 0.321 0.961c0.398 1.281 0.746 2.254 1.039 2.922v0.039c0.16-0.188 0.387-0.453 0.679-0.801z" inkscape:connector-curvature="0"/>
      <path id="path214" style="fill-rule:evenodd;fill:#9d663e" d="m3.68 13.398c-0.215-0.105-0.375-0.199-0.481-0.277-0.16-0.133-0.211-0.309-0.16-0.519 0.133-0.055 0.266-0.055 0.402 0l0.239 0.796zm0.519 0.043c0.266 0.051 0.453 0.118 0.563 0.2l0.117 0.16c-0.106-0.508-0.293-1.082-0.559-1.723l-0.039-0.156-0.32-0.762c-0.242-0.586-0.414-0.906-0.52-0.961-0.109-0.078-0.453-0.078-1.043 0h-0.16l-0.039 0.281c-0.187 0.668-0.304 1.161-0.359 1.481-0.078 0.586 0.066 0.984 0.441 1.199 0.211 0.133 0.52 0.215 0.918 0.238h0.481c0.293 0.012 0.465 0.024 0.519 0.043z" inkscape:connector-curvature="0"/>
      <path id="path216" style="fill-rule:evenodd;fill:#9d663e" d="m13.398 12.879c0.028 0.133 0.149 0.281 0.364 0.441 0.105 0.106 0.277 0.239 0.515 0.399 0.082-0.399 0.149-1.024 0.203-1.879 0.024-0.879 0.079-1.52 0.161-1.918-0.243 0.371-0.375 0.691-0.403 0.957v0.641c0 0.265-0.039 0.468-0.117 0.601-0.027 0.078-0.16 0.199-0.402 0.359-0.211 0.133-0.321 0.266-0.321 0.399z" inkscape:connector-curvature="0"/>
      <path id="path218" style="fill-rule:evenodd;fill:#8b5b37" d="m11.879 6.281c-0.051-0.109-0.156-0.187-0.317-0.242h-0.761c-0.879 0.082-1.375 0.348-1.481 0.801 0.348 0.055 0.868 0.094 1.559 0.121 0.16 0.051 0.496 0.199 1 0.437-0.317-0.238-0.68-0.425-1.078-0.558 0.773 0.027 1.332 0.133 1.679 0.32 0.454 0.293 0.68 0.774 0.68 1.442h-0.199l0.199 0.238 0.199-0.281c0.188-0.454 0.161-0.84-0.082-1.161l-0.355-0.277-0.844-0.48c-0.078-0.188-0.144-0.309-0.199-0.36z" inkscape:connector-curvature="0"/>
      <path id="path220" style="fill-rule:evenodd;fill:#9d663e" d="m12.641 8.602h0.519c0-0.668-0.226-1.149-0.68-1.442-0.347-0.187-0.906-0.293-1.679-0.32 0.398 0.133 0.758 0.32 1.078 0.558 0.375 0.321 0.613 0.657 0.719 1l0.043 0.204z" inkscape:connector-curvature="0"/>
      <path id="path222" style="fill-rule:evenodd;fill:#493322" d="m16.238 6.68c0.082 0.132 0.27 0.226 0.563 0.281l0.359-0.281c-0.055-0.16-0.148-0.293-0.281-0.399-0.16-0.082-0.32-0.066-0.481 0.039-0.16 0.16-0.21 0.282-0.16 0.36z" inkscape:connector-curvature="0"/>
      <path id="path224" style="fill-rule:evenodd;fill:#493322" d="m17.281 5.398 0.559-0.277v-0.16l-0.039-0.242c-0.215-0.051-0.336 0-0.36 0.16-0.109 0.32-0.16 0.496-0.16 0.519z" inkscape:connector-curvature="0"/>
      <path id="path226" style="fill-rule:evenodd;fill:#493322" d="m15.441 3.238-0.121-0.238c-0.16-0.293-0.414-0.441-0.761-0.441l-0.321 0.082c0.137 0.293 0.227 0.531 0.282 0.718-0.028 0.426-0.04 0.746-0.04 0.961l-0.121 2.68 0.121-0.238c0.747-1.203 1.079-2.254 1-3.16l-0.039-0.364z" inkscape:connector-curvature="0"/>
      <path id="path228" style="fill-rule:evenodd;fill:#493322" d="m9.16 3.762c-0.453 0.16-0.68 0.449-0.68 0.879l0.04 0.199h0.082c0.132 0 0.293-0.078 0.476-0.238 0.188-0.161 0.336-0.254 0.442-0.282h0.039l1.203-0.281c-0.028-0.051-0.149-0.144-0.364-0.281-0.398-0.156-0.812-0.156-1.238 0.004z" inkscape:connector-curvature="0"/>
      <path id="path230" style="fill-rule:evenodd;fill:#493322" d="m7 3c-0.133 0.133-0.148 0.32-0.039 0.559l0.117 0.121c0.137 0.187 0.336 0.265 0.602 0.242 0.425-0.082 0.652-0.121 0.679-0.121l-0.281-0.563v-0.078l-0.039-0.121c-0.105-0.133-0.266-0.199-0.48-0.199-0.239-0.028-0.426 0.027-0.559 0.16z" inkscape:connector-curvature="0"/>
      <path id="path232" style="fill-rule:evenodd;fill:#493322" d="m7.559 1.641c0-0.188-0.079-0.282-0.239-0.282-0.132-0.027-0.281 0.016-0.441 0.121-0.16 0.106-0.254 0.243-0.277 0.399 0 0.242 0.105 0.387 0.32 0.441h0.359l0.278-0.679z" inkscape:connector-curvature="0"/>
      <path id="path234" style="fill-rule:evenodd;fill:#493322" d="m6.238 4.039c0-0.641-0.093-1.039-0.277-1.199l-0.16-0.039-0.039 0.039c-0.188 0.082-0.242 0.215-0.16 0.398 0.078 0.028 0.16 0.028 0.238 0l0.398 0.801z" inkscape:connector-curvature="0"/>
      <path id="path236" style="fill-rule:evenodd;fill:#493322" d="m13.039 2.039-0.039-0.238c-0.027-0.133-0.094-0.227-0.199-0.281-0.11-0.055-0.227-0.055-0.36 0-0.136 0.082-0.226 0.175-0.281 0.281-0.055 0.265 0.188 0.347 0.719 0.238h0.16z" inkscape:connector-curvature="0"/>
      <path id="path238" style="fill-rule:evenodd;fill:#493322" d="m15.922 4.68c0.156-0.321 0.305-0.387 0.437-0.2 0.055-0.242 0.055-0.468 0-0.679-0.398-0.16-0.574 0.051-0.519 0.64l0.082 0.239z" inkscape:connector-curvature="0"/>
      <path id="path240" style="fill-rule:evenodd;fill:#493322" d="m13.32 18.32h0.801v-1.199l-1.441 0.238c-0.586 0.055-1.133 0-1.641-0.16l-0.68-0.238 1.161 0.879 0.16 0.16 1.16 0.32 0.238 0.121 0.242-0.121z" inkscape:connector-curvature="0"/>
      <path id="path242" style="fill-rule:evenodd;fill:#493322" d="m12.879 17.238 0.281-0.117c0-0.293-0.039-0.48-0.121-0.562-0.133-0.161-0.238-0.133-0.316 0.082-0.11 0.214-0.067 0.398 0.117 0.558l0.039 0.039z" inkscape:connector-curvature="0"/>
      <path id="path244" style="fill-rule:evenodd;fill:#ba8760" d="m5.84 16.441c-0.078-0.242-0.281-0.453-0.602-0.64-0.343-0.215-0.586-0.176-0.718 0.121-0.079 0.156-0.051 0.293 0.082 0.398 0.132 0.133 0.277 0.172 0.437 0.121h0.801z" inkscape:connector-curvature="0"/>
      <path id="path246" style="fill-rule:evenodd;fill:#ba8760" d="m4.762 14.078c-0.27-0.078-0.442-0.051-0.524 0.082-0.183 0.188-0.183 0.32 0 0.399l0.242 0.043 0.282-0.282c0.05-0.082 0.05-0.16 0-0.242z" inkscape:connector-curvature="0"/>
      <path id="path248" style="fill-rule:evenodd;fill:#ba8760" d="m3.441 12.602c-0.136-0.055-0.269-0.055-0.402 0-0.051 0.21 0 0.386 0.16 0.519 0.106 0.078 0.266 0.172 0.481 0.277l-0.239-0.796z" inkscape:connector-curvature="0"/>
      <path id="path250" style="fill-rule:evenodd;fill:#ba8760" d="m9.281 11.879 0.078 0.199c0.082 0.082 0.188 0.121 0.321 0.121l0.16-0.16c0.027-0.16-0.012-0.277-0.121-0.359-0.133-0.055-0.266-0.055-0.399 0l-0.039 0.199z" inkscape:connector-curvature="0"/>
      <path id="path252" style="fill-rule:evenodd;fill:#ba8760" d="m8.879 11.398 0.402-0.277c-0.293-0.293-0.469-0.773-0.519-1.441-0.215-0.078-0.387-0.067-0.524 0.043-0.183 0.105-0.226 0.355-0.117 0.757 0.106 0.266 0.227 0.481 0.359 0.641 0.106 0.133 0.239 0.227 0.399 0.277z" inkscape:connector-curvature="0"/>
      <path id="path254" style="fill-rule:evenodd;fill:#ba8760" d="m10.359 12.879c-0.16-0.078-0.332-0.078-0.519 0-0.051 0.187-0.012 0.359 0.121 0.519l0.398 0.243v-0.762z" inkscape:connector-curvature="0"/>
      <path id="path256" style="fill-rule:evenodd;fill:#ba8760" d="m11.719 9.281 0.519-0.961-0.199-0.199c-0.211-0.082-0.398-0.066-0.559 0.039l0.04 0.16c0.027 0.078 0.042 0.481 0.042 1.2l0.157-0.239z" inkscape:connector-curvature="0"/>
      <path id="path258" style="fill-rule:evenodd;fill:#ba8760" d="m11.719 12.199-0.039 0.082c-0.028 0.133 0.027 0.239 0.16 0.321l0.238 0.117c0.11-0.426-0.012-0.598-0.359-0.52z" inkscape:connector-curvature="0"/>
      <path id="path260" style="fill-rule:evenodd;fill:#ba8760" d="m10.078 10.441c0.082-0.375-0.078-0.507-0.476-0.402-0.375 0.109-0.43 0.293-0.161 0.563l0.637-0.161z" inkscape:connector-curvature="0"/>
      <path id="path262" style="fill-rule:evenodd;fill:#ba8760" d="m10.719 14.68c-0.16 0.027-0.239 0.105-0.239 0.242 0 0.156 0.094 0.266 0.282 0.316l0.039-0.039 0.078-0.48-0.16-0.039z" inkscape:connector-curvature="0"/>
      <path id="path264" style="fill-rule:evenodd;fill:#ba8760" d="m9.039 15.52c-0.105-0.133-0.238-0.172-0.398-0.122-0.028 0.161 0.011 0.297 0.121 0.403l0.277-0.281z" inkscape:connector-curvature="0"/>
      <path id="path266" style="fill-rule:evenodd;fill:#ba8760" d="m15.922 4.68c-0.11 0.187-0.149 0.375-0.121 0.558 0.027 0.242 0.16 0.375 0.398 0.403h0.16l0.121-0.922c0-0.078-0.039-0.16-0.121-0.239-0.132-0.187-0.281-0.121-0.437 0.2z" inkscape:connector-curvature="0"/>
    </g>
  </g>
<metadata><rdf:RDF><cc:Work><dc:format>image/svg+xml</dc:format><dc:type rdf:resource="http://purl.org/dc/dcmitype/StillImage"/><cc:license rdf:resource="http://creativecommons.org/licenses/publicdomain/"/><dc:publisher><cc:Agent rdf:about="http://openclipart.org/"><dc:title>Openclipart</dc:title></cc:Agent></dc:publisher></cc:Work><cc:License rdf:about="http://creativecommons.org/licenses/publicdomain/"><cc:permits rdf:resource="http://creativecommons.org/ns#Reproduction"/><cc:permits rdf:resource="http://creativecommons.org/ns#Distribution"/><cc:permits rdf:resource="http://creativecommons.org/ns#DerivativeWorks"/></cc:License></rdf:RDF></metadata></svg>
